<svg width="128" height="85" viewBox="0 0 128 85" fill="none" xmlns="http://www.w3.org/2000/svg">
<path fill-rule="evenodd" clip-rule="evenodd" d="M7.89782 72.3667C20.3498 81.0009 34.4933 73.3192 45.0923 70.1773C53.5108 67.6818 81.6708 80 95.661 80C109.651 80 143.011 68.8803 119.572 33.0782C87.2557 -16.2845 65.8853 -0.337332 45.0923 16.7886C24.2992 33.9145 24.2992 24.1307 11.4211 33.9145C-1.45707 43.6982 -4.55418 63.7326 7.89782 72.3667Z" fill="#FC6464" fill-opacity="0.4"/>
<g clip-path="url(#clip0)">
<path fill-rule="evenodd" clip-rule="evenodd" d="M90.3753 75.4767L83.5106 66.4783L76.8059 63.9014L73.9531 69.6625L80.4436 78.1732L82.7617 81.2109C87.3308 87.2028 94.5971 81.012 90.3753 75.4767Z" fill="#E6E6E6"/>
<path fill-rule="evenodd" clip-rule="evenodd" d="M90.3755 75.477L83.5109 66.4785C82.5258 66.979 81.5089 67.4355 80.4707 67.8427C79.9983 68.0239 79.521 68.2015 79.0352 68.3651L89.5955 82.8677C91.6457 81.4548 92.5868 78.3774 90.3755 75.477Z" fill="#C2C7CC"/>
<path fill-rule="evenodd" clip-rule="evenodd" d="M44.5411 75.4768L51.4057 66.4784L58.65 65.2607L60.9632 69.6577L54.4727 78.1734L52.1546 81.2068C47.5855 87.2029 40.3199 81.0078 44.5411 75.4768Z" fill="#E6E6E6"/>
<path fill-rule="evenodd" clip-rule="evenodd" d="M44.5408 75.477L51.4054 66.4785C52.3911 66.979 53.4074 67.4355 54.4456 67.8384C54.9186 68.0239 55.3953 68.2015 55.8811 68.3651L45.3208 82.8677C43.2706 81.4548 42.3295 78.3731 44.5408 75.477Z" fill="#C2C7CC"/>
<path fill-rule="evenodd" clip-rule="evenodd" d="M93.4197 26.085H74.7643C72.7806 26.085 71.1577 27.6969 71.1577 29.6671V32.5144C71.1577 34.4852 72.7806 36.0972 74.7643 36.0972L84.7051 41.3932L93.4197 36.0972C95.3991 36.0972 97.022 34.4852 97.022 32.5144V29.6671C97.022 27.6969 95.3991 26.085 93.4197 26.085Z" fill="#F78411"/>
<path fill-rule="evenodd" clip-rule="evenodd" d="M97.0219 29.6668C97.0219 27.6959 95.3989 26.084 93.4196 26.084H87.0762C89.0555 26.084 90.6785 27.6959 90.6785 29.6668V32.514C90.6785 34.4849 89.0555 36.0962 87.0762 36.0962H93.4196C95.3989 36.0962 97.0219 34.4849 97.0219 32.514V29.6668Z" fill="#F74311"/>
<path fill-rule="evenodd" clip-rule="evenodd" d="M61.2395 26.0889H42.5798C40.6005 26.0889 38.9775 27.7008 38.9775 29.6668V32.514C38.9775 34.4849 40.6005 36.0962 42.5798 36.0962L52.5249 41.3928L61.2395 36.0962C63.2189 36.0962 64.8412 34.4849 64.8412 32.514V29.6668C64.8412 27.7008 63.2189 26.0889 61.2395 26.0889Z" fill="#F78411"/>
<path fill-rule="evenodd" clip-rule="evenodd" d="M64.8414 29.6667C64.8414 27.7008 63.2191 26.0889 61.2398 26.0889H54.8921C56.8757 26.0889 58.498 27.7008 58.498 29.6667V32.514C58.498 34.4849 56.8757 36.0962 54.8921 36.0962H61.2398C63.2191 36.0962 64.8414 34.4849 64.8414 32.514V29.6667Z" fill="#F74311"/>
<path fill-rule="evenodd" clip-rule="evenodd" d="M101.538 43.3978H33.4858C33.4547 43.3978 33.4193 43.3936 33.3882 43.3936C35.3584 51.8604 40.3956 59.1712 47.2914 64.0027C49.9263 65.849 52.8322 67.3328 55.9395 68.382C59.3764 69.5423 63.0544 70.1709 66.8965 70.1709H68.0287C70.0484 70.1709 72.0314 69.9939 73.9534 69.6619C77.3409 69.0686 80.5507 67.9834 83.5103 66.4783C92.5063 61.9037 99.1927 53.468 101.538 43.3978Z" fill="#808080"/>
<path fill-rule="evenodd" clip-rule="evenodd" d="M33.4856 36.0967C31.4666 36.0967 29.8125 37.7391 29.8125 39.7454C29.8125 41.7205 31.4128 43.341 33.3879 43.3941C33.4191 43.3941 33.4545 43.3989 33.4862 43.3989H102.514C104.533 43.3989 106.187 41.7559 106.187 39.7454C106.187 37.7397 104.533 36.0967 102.514 36.0967C79.5031 36.0967 56.4965 36.0967 33.4856 36.0967Z" fill="#E6E6E6"/>
<path fill-rule="evenodd" clip-rule="evenodd" d="M33.3882 43.3936C33.4681 43.3978 33.5396 43.3978 33.3882 43.3936V43.3936ZM101.538 43.3978L33.3882 43.3936C33.7355 44.8901 34.1768 46.3519 34.712 47.7686H88.9315C92.4483 47.7686 93.6654 48.5657 92.2701 52.2369C90.2822 57.4756 87.0766 62.1118 82.9848 65.7874C82.8865 65.8759 82.7889 65.9595 82.6906 66.0486C81.9771 66.673 81.2374 67.2748 80.4708 67.8418C81.509 67.4347 82.5252 66.9782 83.5109 66.4777C92.5063 61.9037 99.1927 53.468 101.538 43.3978Z" fill="#666666"/>
<path fill-rule="evenodd" clip-rule="evenodd" d="M106.187 39.745C106.187 37.7388 104.533 36.0957 102.514 36.0957H95.3545C97.3735 36.0957 99.0276 37.7388 99.0276 39.745C99.0276 41.7421 97.3919 43.3803 95.3813 43.3937L101.537 43.398H102.513C104.533 43.398 106.187 41.7555 106.187 39.745Z" fill="#C2C7CC"/>
<path d="M46.0407 19.5391C45.5707 19.9938 45.5604 20.7415 46.0175 21.209C46.2501 21.4471 46.5595 21.5667 46.8696 21.5667C47.1674 21.5667 47.4665 21.4556 47.6972 21.2322C50.0428 18.9654 49.0809 17.0995 48.4443 15.8648C47.8559 14.7228 47.6124 14.2504 48.8508 13.0938C49.3287 12.6476 49.3519 11.8999 48.9027 11.4251C48.4534 10.9496 47.7015 10.9264 47.2236 11.3732C44.6827 13.7463 45.6739 15.6695 46.33 16.9415C46.9105 18.0676 47.1278 18.4887 46.0407 19.5391Z" fill="black"/>
<path d="M52.4995 13.3307C52.0295 13.7854 52.0198 14.5331 52.4775 15.0007C52.7101 15.2387 53.0189 15.3577 53.3284 15.3577C53.6274 15.3577 53.9259 15.2466 54.1572 15.0232C56.4991 12.7564 55.5384 10.8912 54.9025 9.65703C54.3141 8.51506 54.0712 8.04203 55.3096 6.88542C55.7881 6.43864 55.8113 5.69157 55.3621 5.2161C54.9128 4.74064 54.1609 4.71745 53.683 5.16422C51.1415 7.53788 52.1321 9.46049 52.7876 10.7331C53.368 11.8592 53.5847 12.2809 52.4995 13.3307Z" fill="black"/>
<path d="M77.8232 19.5397C77.3533 19.995 77.3429 20.7421 77.8007 21.2096C78.0338 21.4471 78.3426 21.5667 78.6521 21.5667C78.9506 21.5667 79.2496 21.4556 79.481 21.2322C81.8223 18.9654 80.8616 17.1001 80.2262 15.866C79.6378 14.724 79.3943 14.251 80.6333 13.0938C81.1112 12.6476 81.135 11.8999 80.6858 11.4251C80.2366 10.9496 79.4846 10.9264 79.0067 11.3732C76.4652 13.7463 77.4558 15.6695 78.1113 16.9421C78.6912 18.0682 78.9084 18.4893 77.8232 19.5397Z" fill="black"/>
<path d="M84.2789 13.3308C83.8083 13.7856 83.7979 14.5332 84.2551 15.0008C84.4882 15.2388 84.7971 15.3584 85.1071 15.3584C85.4056 15.3584 85.704 15.2474 85.9348 15.0246C88.2803 12.7571 87.3196 10.8913 86.6837 9.65653C86.0953 8.51456 85.8517 8.04214 87.0883 6.88553C87.5668 6.43875 87.5894 5.69168 87.1402 5.21621C86.6904 4.74136 85.939 4.71878 85.4611 5.16555C82.9233 7.5386 83.9139 9.4606 84.5688 10.7326C85.1486 11.8587 85.3659 12.2804 84.2789 13.3308Z" fill="black"/>
<path d="M102.514 34.9165H97.5539C97.9702 34.2109 98.21 33.3906 98.21 32.5148V29.6675C98.21 27.0411 96.061 24.9043 93.42 24.9043H74.7646C72.1211 24.9043 69.9703 27.0411 69.9703 29.6675V32.5148C69.9703 33.39 70.2101 34.2109 70.627 34.9165H65.3731C65.7893 34.2109 66.0292 33.3906 66.0292 32.5148V29.6675C66.0292 27.0436 63.8789 24.9086 61.2349 24.9086H42.5801C39.9385 24.9086 37.79 27.0436 37.79 29.6675V32.5148C37.79 33.39 38.0299 34.2109 38.4462 34.9165H33.4858C30.8058 34.9165 28.625 37.0833 28.625 39.7462C28.625 42.0503 30.2553 43.9821 32.4287 44.4636C33.6213 49.1096 35.6935 53.4047 38.6024 57.2487L38.6342 57.2902C38.6793 57.3506 38.7263 57.411 38.7758 57.4696C39.0114 57.7449 39.3458 57.8871 39.6828 57.8871C39.9544 57.8871 40.2272 57.795 40.4506 57.607C40.9505 57.1852 41.0127 56.44 40.5885 55.9425C40.569 55.9193 40.5507 55.8943 40.5324 55.8705L40.4933 55.8193C37.928 52.4287 36.0573 48.6537 34.9183 44.5796H64.5833C65.2394 44.5796 65.771 44.051 65.771 43.3992C65.771 42.7467 65.2394 42.2182 64.5833 42.2182H33.5072C33.4797 42.2163 33.4535 42.2157 33.4273 42.2151C32.0845 42.184 31.0005 41.089 31.0005 39.7456C31.0005 38.3851 32.1156 37.278 33.4858 37.278H102.514C103.884 37.278 105 38.3851 105 39.7456C105 41.1091 103.884 42.2182 102.514 42.2182H70.0307C69.3746 42.2182 68.8423 42.7467 68.8423 43.3992C68.8423 44.051 69.3746 44.5796 70.0307 44.5796H100.006C97.4343 53.8087 91.2233 61.2062 83.1612 65.3475C83.0318 65.3871 82.9073 65.4482 82.7931 65.5336C82.7925 65.5342 82.7919 65.5342 82.7919 65.5348C79.9971 66.9264 76.9863 67.9292 73.832 68.4853C73.7709 68.4914 73.7105 68.5011 73.6507 68.517C71.8196 68.8289 69.941 68.9913 68.0287 68.9913H66.8965C64.9825 68.9913 63.0922 68.8289 61.2422 68.5109C61.2019 68.5018 61.161 68.4944 61.1202 68.4889C57.9439 67.9305 54.8872 66.9136 52.029 65.4695C51.982 65.4408 51.9337 65.4164 51.8843 65.3945C48.8795 63.8582 46.0969 61.8507 43.6323 59.4081C43.1679 58.9473 42.4159 58.9479 41.9527 59.4106C41.4894 59.872 41.49 60.6197 41.9551 61.0805C44.2702 63.3754 46.8477 65.3127 49.6175 66.8654L43.5945 74.7634C42.043 76.7971 41.6621 79.1658 42.5502 81.2636C43.3668 83.1917 45.1314 84.5467 47.1565 84.8C47.3567 84.825 47.5868 84.8421 47.8407 84.8421C49.2042 84.8421 51.2526 84.3465 53.1013 81.9204L55.0581 79.355H79.8555L81.8148 81.9252C83.6635 84.3496 85.7119 84.8446 87.0754 84.8446C87.3293 84.8446 87.56 84.8275 87.7602 84.8024C89.7847 84.5491 91.5493 83.1948 92.3659 81.2667C93.2546 79.1689 92.8737 76.7989 91.3222 74.764L85.3035 66.8715C87.065 65.8803 88.7538 64.7304 90.3579 63.4255C96.2673 58.6165 100.54 51.9533 102.464 44.5802H102.514C105.194 44.5802 107.375 42.4116 107.375 39.7462C107.375 37.0833 105.194 34.9165 102.514 34.9165ZM42.5801 34.9165C41.2489 34.9165 40.1662 33.8386 40.1662 32.5148V29.6675C40.1662 28.3461 41.2489 27.2706 42.5801 27.2706H61.2355C62.5691 27.2706 63.6537 28.3461 63.6537 29.6675V32.5148C63.6537 33.8386 62.5691 34.9165 61.2355 34.9165H42.5801ZM74.7646 34.9165C73.431 34.9165 72.3464 33.8386 72.3464 32.5148V29.6675C72.3464 28.343 73.431 27.2657 74.7646 27.2657H93.42C94.7512 27.2657 95.8339 28.343 95.8339 29.6675V32.5148C95.8339 33.8386 94.7512 34.9165 93.42 34.9165H74.7646ZM51.208 80.4946C50.1173 81.9258 48.7837 82.6223 47.4525 82.4569C46.2678 82.3085 45.2284 81.5004 44.7401 80.3475C44.4173 79.5845 44.0846 78.0294 45.4878 76.191L51.7567 67.9701C54.0297 69.0462 56.4137 69.8744 58.8753 70.4427L51.208 80.4946ZM56.8599 76.9936L61.4766 70.9407C63.2546 71.2129 65.0649 71.3533 66.8965 71.3533H68.0293C69.8628 71.3533 71.6713 71.2166 73.4456 70.9474L78.055 76.9936H56.8599ZM89.4289 76.191C90.8327 78.0312 90.5001 79.587 90.1766 80.3505C89.6883 81.5029 88.6489 82.311 87.4642 82.4593C86.133 82.6253 84.7994 81.9289 83.7087 80.4988L76.0481 70.4512C78.5085 69.8867 80.8895 69.059 83.1661 67.9775L89.4289 76.191Z" fill="black"/>
</g>
<defs>
<clipPath id="clip0">
<rect width="80" height="80" fill="white" transform="translate(28 5)"/>
</clipPath>
</defs>
</svg>
