<svg width="129" height="86" viewBox="0 0 129 86" fill="none" xmlns="http://www.w3.org/2000/svg">
<path fill-rule="evenodd" clip-rule="evenodd" d="M48.5194 84.9979C69.8947 91.0089 80.2956 67.9413 98.6102 69.6963C108.636 70.657 128.619 75.5261 128.574 40.0569C128.463 17.1579 107.356 11.4237 85.5912 23.1672C79.1866 25.6719 74.1301 24.8957 68.6401 22.407C63.1501 19.9184 56.0893 8.80854 42.7817 6.52295C2.73475 -0.355116 -31.5305 62.4866 48.5194 84.9979Z" fill="#64FCD9" fill-opacity="0.4"/>
<path fill-rule="evenodd" clip-rule="evenodd" d="M53.5984 75.689C53.7492 75.7201 53.9042 75.7378 54.0678 75.7378H87.7092C88.9396 75.7378 89.9443 74.7326 89.9443 73.5058V32.2887C89.9443 31.0619 88.9396 30.0566 87.7092 30.0566H50.9959L43.7632 52.9015L53.5984 75.689Z" fill="#E6E6E6"/>
<path fill-rule="evenodd" clip-rule="evenodd" d="M71.0387 33.6475C69.8131 33.6475 68.8213 34.6442 68.8213 35.8704C68.8213 37.0972 69.8131 38.089 71.0387 38.089C72.2649 38.089 73.261 37.0972 73.261 35.8704C73.261 34.6436 72.2649 33.6475 71.0387 33.6475Z" fill="#F78411"/>
<path fill-rule="evenodd" clip-rule="evenodd" d="M77.4219 35.8704C77.4219 37.0972 78.4137 38.089 79.6399 38.089C80.8661 38.089 81.8616 37.0972 81.8616 35.8704C81.8616 34.6436 80.8661 33.6475 79.6399 33.6475C78.4137 33.6475 77.4219 34.6442 77.4219 35.8704Z" fill="#F78411"/>
<path fill-rule="evenodd" clip-rule="evenodd" d="M50.3851 35.0114L44.334 34.2631C37.0037 33.3598 31.4269 36.5697 32.2942 44.5714C32.8826 49.9785 31.5148 51.6875 30.2935 53.1004C28.1554 55.3233 26.7168 58.1529 26.3231 61.3408C25.2074 70.3655 32.6128 77.628 41.2048 78.6864C45.6133 79.2308 50.111 78.1194 53.5986 75.6884C56.914 73.3769 59.3176 69.8784 59.8577 65.4814C60.2514 62.2887 59.5434 59.1936 58.0077 56.519C56.7236 54.6281 57.2552 50.1335 58.6627 47.9723C59.9725 45.9666 60.4064 43.6375 59.9505 41.804C59.5391 40.1433 58.3972 38.8902 56.5112 38.6601C53.9971 38.5142 50.7702 38.5008 50.3851 35.0114Z" fill="#FFDDA6"/>
<path fill-rule="evenodd" clip-rule="evenodd" d="M44.3342 34.2637L43.1702 43.7309C43.0817 44.4352 43.617 45.0859 44.361 45.1792L47.7118 45.5912C48.451 45.684 49.1279 45.1792 49.2164 44.4749L50.3852 35.012L50.9962 30.0565L52.7668 15.665L50.5091 11.5293L46.72 14.9216L44.3342 34.2637Z" fill="#B5722F"/>
<path fill-rule="evenodd" clip-rule="evenodd" d="M45.99 3.0932L44.8298 12.4945C44.6839 13.681 45.5341 14.7747 46.72 14.9206L52.7668 15.6646C53.9533 15.8105 55.0465 14.9609 55.1923 13.7738L56.352 4.36823C56.4985 3.1817 55.6483 2.09222 54.4617 1.94635L48.4113 1.19806C47.2248 1.05157 46.1359 1.90179 45.99 3.0932Z" fill="#FFDDA6"/>
<path fill-rule="evenodd" clip-rule="evenodd" d="M53.665 4.03614L52.5054 13.4417C52.4565 13.8183 52.3149 14.1637 52.1068 14.4518C51.8016 14.8681 51.3542 15.169 50.8495 15.2929C50.6066 15.3502 50.3496 15.3679 50.0884 15.3374L50.9294 15.4387L52.7666 15.6646C53.9525 15.8111 55.0463 14.9608 55.1921 13.7743L56.3518 4.36878C56.4977 3.18164 55.6481 2.09216 54.4616 1.94629L51.7705 1.61426C52.9613 1.76013 53.8109 2.84961 53.665 4.03614Z" fill="#FCC368"/>
<path fill-rule="evenodd" clip-rule="evenodd" d="M52.7534 40.5686C54.6345 40.7987 55.2546 42.0518 55.666 43.7125C56.122 45.546 55.3962 47.8751 54.0858 49.8856C52.6741 52.042 52.9658 56.5409 54.2494 58.4275C55.7856 61.1063 56.4937 64.2014 56.1 67.3899C55.7594 70.1579 54.6834 72.5663 53.1074 74.5506C52.1736 75.7194 51.0713 76.7423 49.8365 77.5968C49.7792 77.6414 49.7169 77.6811 49.6553 77.725C51.0585 77.2117 52.3909 76.5299 53.5988 75.6883C55.547 74.329 57.1846 72.5578 58.3088 70.4362C59.0968 68.9488 59.637 67.2923 59.8579 65.4814C60.2516 62.2886 59.5436 59.1935 58.0079 56.5183C56.7238 54.6281 57.2554 50.1328 58.6628 47.9722C59.9727 45.966 60.4066 43.6368 59.9507 41.804C59.5393 40.1432 58.3973 38.8901 56.5114 38.6594C53.9973 38.5136 50.7704 38.5001 50.3853 35.0107L49.7346 40.2537C50.713 40.4801 51.7885 40.5155 52.7534 40.5686Z" fill="#FCC368"/>
<path fill-rule="evenodd" clip-rule="evenodd" d="M47.6497 34.6702L46.4814 44.138C46.3972 44.8374 45.7246 45.3422 44.9849 45.2537L46.1403 45.3953L47.7119 45.5906C48.4511 45.6834 49.1285 45.1786 49.217 44.4743L49.7346 40.2543L50.3853 35.0114L50.9962 30.0559L52.7669 15.6644L50.9297 15.4386L50.0886 15.3373L50.0355 15.3281L48.2606 29.7196L47.6497 34.6702Z" fill="#733E08"/>
<path fill-rule="evenodd" clip-rule="evenodd" d="M38.2653 56.0941C37.8759 59.282 40.1378 62.1824 43.3208 62.5724C46.5075 62.9661 49.4073 60.7035 49.8009 57.5199C50.1903 54.3314 47.9284 51.431 44.746 51.0368C41.5587 50.6474 38.6596 52.9099 38.2653 56.0941Z" fill="#808080"/>
<path fill-rule="evenodd" clip-rule="evenodd" d="M44.2191 51.4578C46.37 52.521 47.7158 54.8586 47.4058 57.3782C47.3087 58.1887 47.0432 58.9413 46.6538 59.606C45.7773 61.1068 44.2496 62.1517 42.5059 62.413C42.7714 62.4887 43.0417 62.5418 43.3207 62.5729C44.8521 62.7633 46.3169 62.3379 47.468 61.4919C48.7162 60.5801 49.5927 59.172 49.8008 57.5204C50.1902 54.3319 47.9282 51.4315 44.7459 51.0372C44.6177 51.0238 44.4889 51.011 44.365 51.0061C43.9579 50.9798 43.5593 51.0018 43.1699 51.0598C43.5374 51.1568 43.8871 51.2942 44.2191 51.4578Z" fill="#666666"/>
<path fill-rule="evenodd" clip-rule="evenodd" d="M58.6625 47.9719C57.255 50.1332 56.7234 54.6278 58.0076 56.5187C59.5432 59.1933 60.2512 62.2883 59.8576 65.4811C59.6366 67.2926 59.0965 68.9485 58.3085 70.4366H82.2599C83.079 70.4366 83.7474 69.7768 83.7474 68.9754V43.2649C83.7474 42.4592 83.079 41.8037 82.2599 41.8037H59.9503C60.4063 43.6372 59.9729 45.9663 58.6625 47.9719Z" fill="#808080"/>
<path fill-rule="evenodd" clip-rule="evenodd" d="M89.9442 32.2887C89.9442 31.0619 88.9396 30.0566 87.7091 30.0566H83.4727C84.7031 30.0566 85.7078 31.0619 85.7078 32.2887V73.5058C85.7078 74.7063 84.7477 75.6933 83.5569 75.7378H87.7091C88.9396 75.7378 89.9442 74.7326 89.9442 73.5058V32.2887Z" fill="#C2C7CC"/>
<path fill-rule="evenodd" clip-rule="evenodd" d="M83.7474 43.2649C83.7474 42.4592 83.0791 41.8037 82.26 41.8037H78.7896C79.6086 41.8037 80.277 42.4592 80.277 43.2649V68.9754C80.277 69.7768 79.6086 70.4366 78.7896 70.4366H82.26C83.0791 70.4366 83.7474 69.7768 83.7474 68.9754V43.2649Z" fill="#666666"/>
<path d="M79.6402 32.4658C77.7658 32.4658 76.2417 33.9923 76.2417 35.8691C76.2417 37.7435 77.7658 39.2688 79.6402 39.2688C81.5164 39.2688 83.0429 37.7435 83.0429 35.8691C83.0429 33.9923 81.5164 32.4658 79.6402 32.4658ZM79.6402 36.9067C79.0682 36.9067 78.6032 36.4417 78.6032 35.8691C78.6032 35.2948 79.0682 34.8273 79.6402 34.8273C80.2139 34.8273 80.6814 35.2948 80.6814 35.8691C80.6814 36.4417 80.2139 36.9067 79.6402 36.9067Z" fill="black"/>
<path d="M71.0391 32.4658C69.1653 32.4658 67.6406 33.9923 67.6406 35.8691C67.6406 37.7435 69.1653 39.2688 71.0391 39.2688C72.9159 39.2688 74.4418 37.7435 74.4418 35.8691C74.4424 33.9923 72.9159 32.4658 71.0391 32.4658ZM71.0391 36.9067C70.4678 36.9067 70.0021 36.4417 70.0021 35.8691C70.0021 35.2948 70.4678 34.8273 71.0391 34.8273C71.6134 34.8273 72.0803 35.2948 72.0803 35.8691C72.0803 36.4417 71.6134 36.9067 71.0391 36.9067Z" fill="black"/>
<path d="M44.891 49.8646C44.8904 49.8646 44.8898 49.8646 44.8892 49.8646C41.0647 49.3971 37.5668 52.126 37.0938 55.9505C36.6256 59.7798 39.3551 63.2759 43.1759 63.744C43.4658 63.7794 43.7539 63.7971 44.039 63.7971C47.5149 63.7971 50.5355 61.1995 50.9732 57.6625C51.4407 53.8362 48.7124 50.3377 44.891 49.8646ZM48.6294 57.3744C48.3163 59.9074 45.9988 61.7128 43.4646 61.3997C40.9341 61.0902 39.1281 58.774 39.4375 56.2385C39.7274 53.8966 41.7312 52.1742 44.0365 52.1742C44.2233 52.1742 44.4119 52.1852 44.6017 52.2084C47.1322 52.5227 48.9389 54.8402 48.6294 57.3744Z" fill="black"/>
<path d="M87.7097 28.875H83.7332V27.5054C83.7332 25.4479 82.0621 23.7737 80.0077 23.7737H58.7027C56.6458 23.7737 54.9722 25.4473 54.9722 27.5054V28.875H52.33L53.8205 16.7668C54.2783 16.6558 54.7116 16.4489 55.0955 16.1504C55.8047 15.598 56.2552 14.8046 56.3644 13.9177L57.5241 4.5122C57.7499 2.67687 56.4413 0.999621 54.6072 0.773791L48.5562 0.025499H48.5556C47.6681 -0.0837539 46.7905 0.160387 46.0831 0.713366C45.3763 1.26573 44.927 2.0598 44.8184 2.94786L43.6581 12.3491C43.483 13.7743 44.2306 15.103 45.4306 15.7341L44.5968 22.5029C44.5169 23.1505 44.9771 23.7395 45.6241 23.8195C45.6729 23.8256 45.7217 23.828 45.7699 23.828C46.3577 23.828 46.8667 23.3898 46.9406 22.7916L47.7475 16.2365L51.4505 16.6918L49.8245 29.9114L48.0447 44.3267C48.0417 44.3523 48.0154 44.3743 48.0038 44.3828C47.9813 44.3999 47.9324 44.4274 47.8555 44.4176L44.5071 44.0063C44.4247 43.9959 44.3808 43.9519 44.3649 43.933C44.357 43.9232 44.3387 43.8982 44.3417 43.8744L46.3162 27.8399C46.3962 27.1929 45.936 26.6033 45.289 26.5233C44.6432 26.444 44.0518 26.9036 43.9725 27.5512L43.3029 32.979C39.255 32.7086 35.8804 33.7078 33.7155 35.8416C31.614 37.9125 30.7168 40.9752 31.1203 44.699C31.6623 49.677 30.4776 51.0821 29.4204 52.3046C27.0388 54.79 25.563 57.8637 25.151 61.1962C24.5846 65.7769 26.0397 70.2508 29.2483 73.7933C32.2348 77.091 36.5402 79.3011 41.0605 79.8577C41.8326 79.9529 42.6102 79.9999 43.3877 79.9999C47.1261 79.9999 50.8542 78.9153 53.9035 76.9042L87.7091 76.9177C89.5926 76.9177 91.1252 75.3869 91.1252 73.5052V32.2875C91.1252 30.4058 89.5932 28.875 87.7097 28.875ZM46.0019 12.6378L47.1622 3.23656C47.1945 2.9735 47.3276 2.7379 47.5381 2.57372C47.7151 2.43517 47.9275 2.36193 48.1467 2.36193C48.1863 2.36193 48.2266 2.36437 48.2669 2.36925L54.3179 3.11754C54.8605 3.18468 55.2475 3.6809 55.1804 4.2235L54.0207 13.629C53.9889 13.889 53.8553 14.1228 53.6441 14.287C53.4329 14.4518 53.1729 14.5238 52.9111 14.4921L46.8649 13.748C46.3315 13.6827 45.9366 13.1737 46.0019 12.6378ZM41.3492 77.514C37.3831 77.0251 33.6105 75.0915 30.9994 72.2082C28.2589 69.1827 27.0144 65.3747 27.4954 61.4855C27.8451 58.6541 29.1073 56.0369 31.1447 53.9184C31.1593 53.9031 31.1734 53.8879 31.1868 53.8726C32.7353 52.0824 34.075 50.0139 33.4683 44.4439C33.1405 41.4208 33.7814 39.0923 35.3732 37.5237C37.0273 35.8934 39.714 35.1311 43.0136 35.3289L41.9986 43.5827C41.915 44.2486 42.1078 44.9059 42.5418 45.4333C42.9599 45.9417 43.5538 46.267 44.2172 46.35L47.5644 46.7614C47.6736 46.7748 47.7823 46.7815 47.8909 46.7815C48.4384 46.7815 48.9688 46.6076 49.4125 46.2786C49.9582 45.8727 50.3049 45.2843 50.3885 44.6184L51.1319 38.6016C52.623 39.6264 54.6561 39.7399 56.102 39.8192L56.4035 39.8363C57.4191 39.9712 58.1479 40.4998 58.5696 41.4086C58.6606 41.6039 58.7344 41.812 58.7924 42.0299C58.7967 42.0495 58.8016 42.069 58.8065 42.0885C59.194 43.6297 58.7778 45.6383 57.6736 47.3272C56.0666 49.7936 55.4507 54.7838 57.0035 57.1404C58.4525 59.6801 59.0347 62.5133 58.6862 65.3368C58.4848 66.9707 58.013 68.4527 57.3294 69.7765C57.2855 69.8418 57.2482 69.912 57.2177 69.9859C54.1989 75.5724 47.3697 78.2549 41.3492 77.514ZM69.9161 42.9845V69.2553H65.9525V42.9845H69.9161ZM76.2418 42.9845V69.2553H72.2775V42.9845H76.2418ZM82.2605 42.9845C82.4265 42.9845 82.5669 43.1127 82.5669 43.2647V68.9751C82.5669 69.1241 82.4234 69.2553 82.2605 69.2553H78.6032V42.9845H82.2605ZM63.591 69.2553H60.134C60.5722 68.1005 60.8749 66.8859 61.03 65.6255C61.4432 62.2784 60.7523 58.9257 59.0317 55.9301C59.017 55.9045 59.0012 55.8794 58.9847 55.855C58.0582 54.4903 58.4262 50.4992 59.6512 48.6181C60.806 46.8517 61.3718 44.8296 61.2991 42.9845H63.5904V69.2553H63.591ZM88.7644 73.5052C88.7644 74.0844 88.2907 74.5562 87.7097 74.5562L56.7606 74.544C57.6273 73.648 58.3768 72.6678 58.9981 71.6174H82.2605C83.732 71.6174 84.9289 70.4321 84.9289 68.9751V43.2647C84.9289 41.8084 83.732 40.6231 82.2605 40.6231H60.798C60.7694 40.5535 60.7431 40.4821 60.7114 40.4137C59.9405 38.7536 58.5001 37.7141 56.6556 37.4877C56.6306 37.4846 56.6055 37.4822 56.5799 37.4804L56.2314 37.4608C53.2919 37.2991 51.8515 36.9988 51.5756 35.0066L52.0395 31.2365H66.1301C66.7825 31.2365 67.3111 30.7079 67.3111 30.0554C67.3111 29.4036 66.7825 28.8744 66.1301 28.8744H57.3337V27.5048C57.3337 26.7498 57.9477 26.1351 58.7027 26.1351H80.007C80.7596 26.1351 81.3718 26.7498 81.3718 27.5048V28.8744H71.5836C70.9317 28.8744 70.4025 29.4036 70.4025 30.0554C70.4025 30.7079 70.9317 31.2365 71.5836 31.2365H87.7091C88.2907 31.2365 88.7638 31.7077 88.7638 32.2875V73.5052H88.7644Z" fill="black"/>
</svg>
