<svg width="89" height="83" viewBox="0 0 89 83" fill="none" xmlns="http://www.w3.org/2000/svg">
<circle cx="63" cy="26" r="26" fill="#D0D6FF"/>
<g clip-path="url(#clip0)">
<path fill-rule="evenodd" clip-rule="evenodd" d="M49.965 14.1927C47.3429 17.7328 46.4176 22.0126 47.042 26.0629L53.7644 36.3332L65.2164 39.5321C69.2728 38.9517 73.0942 36.8209 75.7163 33.276C80.9458 26.2136 79.4224 16.213 72.3106 10.945C65.1987 5.67222 55.1951 7.12547 49.965 14.1927Z" fill="#808080"/>
<path fill-rule="evenodd" clip-rule="evenodd" d="M43.8621 32.0836L49.4596 41.6057L60.5399 44.4457L65.3495 39.6294L65.2164 39.5317L47.042 26.0625L37.4985 43.3245L43.8621 32.0836Z" fill="#E6E6E6"/>
<path fill-rule="evenodd" clip-rule="evenodd" d="M29.0799 63.1082C27.8714 64.7427 28.2162 67.0688 29.8508 68.2785C31.4847 69.4882 33.8095 69.1428 35.0235 67.5076L37.5919 64.0341C37.955 60.7376 35.958 58.6374 31.5292 59.7983L29.0799 63.1082Z" fill="#808080"/>
<path fill-rule="evenodd" clip-rule="evenodd" d="M37.4945 43.3301L31.6846 53.8355C30.5328 55.9223 30.6525 58.0402 31.5295 59.8035C32.663 62.0764 35.0543 63.7647 37.5922 64.0351C39.4165 64.2298 41.3165 63.6981 42.8796 62.1344L51.3824 53.6182L47.4146 44.3848L37.4945 43.3301Z" fill="#E6E6E6"/>
<path fill-rule="evenodd" clip-rule="evenodd" d="M43.8619 32.084L37.4984 43.3248L37.4941 43.3297L51.3815 53.6178L60.5398 44.4461L43.8619 32.084Z" fill="#64B0D9"/>
<path fill-rule="evenodd" clip-rule="evenodd" d="M70.5219 29.4254C67.9004 32.9697 64.0784 35.1011 60.022 35.6815L60.155 35.7792L65.2167 39.5316C69.2731 38.9512 73.0951 36.8198 75.7166 33.2755C80.9467 26.2131 79.4232 16.2125 72.3108 10.944C71.4209 10.2842 70.4865 9.72998 69.5209 9.27832C74.5032 14.8215 75.0964 23.2444 70.5219 29.4254Z" fill="#666666"/>
<path fill-rule="evenodd" clip-rule="evenodd" d="M58.3304 37.6091L55.3452 40.5956L60.5399 44.4457L65.3495 39.6294L65.2164 39.5317L60.1548 35.7793L58.3304 37.6091Z" fill="#C2C7CC"/>
<path fill-rule="evenodd" clip-rule="evenodd" d="M53.3439 42.6025L48.6631 47.29L46.1875 49.7675L51.3816 53.6176L60.5399 44.4458L55.3452 40.5957L53.3439 42.6025Z" fill="#4A83C9"/>
<path fill-rule="evenodd" clip-rule="evenodd" d="M46.1879 49.7676L37.6851 58.2832C35.5464 60.4188 34.4258 61.0347 32.043 60.6672C33.2966 62.4971 35.3914 63.7996 37.5923 64.0346C39.4166 64.2293 41.3167 63.6976 42.8798 62.1333L51.3826 53.6177L46.1879 49.7676Z" fill="#C2C7CC"/>
<path fill-rule="evenodd" clip-rule="evenodd" d="M33.8494 65.2266C32.636 66.8611 30.3112 67.2072 28.6772 65.9974C28.5753 65.9218 28.4777 65.8424 28.3892 65.7582C28.5088 66.7286 29.0093 67.6545 29.851 68.2789C31.4849 69.4887 33.8097 69.1432 35.0231 67.5081L37.5921 64.0345C36.7772 63.946 35.9752 63.7153 35.2269 63.3613L33.8494 65.2266Z" fill="#666666"/>
<path fill-rule="evenodd" clip-rule="evenodd" d="M55.5001 71.9829C52.9141 72.5811 50.8193 74.4951 50.8193 76.2542C50.8193 78.0132 52.9141 78.9525 55.5001 78.3544C58.0862 77.752 60.1809 75.8422 60.1809 74.0832C60.1809 73.2372 59.703 72.5811 58.9144 72.1959C58.0599 71.7748 56.8465 71.6686 55.5001 71.9829Z" fill="#F78411"/>
<path fill-rule="evenodd" clip-rule="evenodd" d="M69.7825 66.8531C67.1958 67.4512 65.1011 69.3653 65.1011 71.1243C65.1011 72.8834 67.1958 73.8227 69.7825 73.2203C72.3685 72.6221 74.4633 70.7081 74.4633 68.949C74.4633 68.0091 73.8608 67.3005 72.9044 66.9373C72.0762 66.6267 70.9824 66.5736 69.7825 66.8531Z" fill="#F78411"/>
<path fill-rule="evenodd" clip-rule="evenodd" d="M55.8992 72.3418C56.6835 72.7318 57.1656 73.3874 57.1656 74.2296C57.1656 75.9045 55.2613 77.7209 52.8438 78.4075C53.6006 78.5851 54.5131 78.5802 55.5006 78.3544C58.0867 77.752 60.1814 75.8422 60.1814 74.0832C60.1814 73.2372 59.7035 72.5811 58.9149 72.1959C58.0604 71.7748 56.847 71.6686 55.5006 71.9829C55.381 72.0098 55.2571 72.0409 55.1374 72.0763C55.4164 72.1422 55.6691 72.2313 55.8992 72.3418Z" fill="#F74311"/>
<path fill-rule="evenodd" clip-rule="evenodd" d="M69.8887 67.0876C70.8451 67.4465 71.4469 68.1551 71.4469 69.0987C71.4469 70.7735 69.5432 72.5906 67.125 73.2772C67.8824 73.4542 68.7943 73.4499 69.7819 73.2198C72.3685 72.6217 74.4633 70.7076 74.4633 68.9486C74.4633 68.0086 73.8608 67.3 72.9044 66.9369C72.0762 66.6268 70.9824 66.5737 69.7825 66.8526C69.658 66.8789 69.5383 66.91 69.4193 66.9454C69.5829 66.9808 69.7422 67.0296 69.8887 67.0876Z" fill="#F74311"/>
<path fill-rule="evenodd" clip-rule="evenodd" d="M23.6865 28.5622C20.8965 29.6609 18.8769 32.1426 19.1692 34.1055C19.4616 36.0677 21.9549 36.7727 24.7448 35.6692C27.5305 34.5705 29.5495 32.0889 29.2578 30.1266C29.1027 29.0719 28.3141 28.3852 27.185 28.1411C26.2109 27.9287 24.9798 28.0526 23.6865 28.5622Z" fill="#64B0D9"/>
<path fill-rule="evenodd" clip-rule="evenodd" d="M8.59852 36.6604C5.81287 37.764 3.78894 40.245 4.0813 42.2079C4.37366 44.1708 6.87183 44.8709 9.65687 43.7723C12.4425 42.673 14.4664 40.1919 14.1741 38.229C14.0325 37.2854 13.3855 36.6336 12.4425 36.3327C11.4196 36.0049 10.0512 36.0891 8.59852 36.6604Z" fill="#64B0D9"/>
<path fill-rule="evenodd" clip-rule="evenodd" d="M9.37805 36.8157C10.3168 37.1172 10.9637 37.7685 11.1053 38.7121C11.3977 40.675 9.37378 43.156 6.58813 44.2553C6.58386 44.2596 6.57898 44.2596 6.57471 44.2638C7.47376 44.3658 8.54126 44.2107 9.65698 43.7725C12.4426 42.6733 14.4666 40.1922 14.1742 38.2293C14.032 37.2857 13.3856 36.6338 12.4426 36.3329C11.424 36.0052 10.0598 36.0894 8.61633 36.6564C8.88672 36.6875 9.13879 36.7406 9.37805 36.8157Z" fill="#4A83C9"/>
<path fill-rule="evenodd" clip-rule="evenodd" d="M24.1161 28.6237C25.2452 28.8672 26.0332 29.5581 26.1882 30.6085C26.4806 32.5714 24.4615 35.0525 21.6759 36.1511C21.6667 36.156 21.6625 36.156 21.6582 36.1603C22.5573 36.2622 23.6284 36.1115 24.7448 35.6684C27.5304 34.5697 29.5494 32.088 29.2577 30.1257C29.1027 29.0711 28.3141 28.3844 27.1849 28.1403C26.2151 27.9279 24.9883 28.0475 23.6998 28.5523C23.8457 28.5706 23.983 28.5925 24.1161 28.6237Z" fill="#4A83C9"/>
<path d="M73.0146 9.99716C69.3916 7.30979 64.9409 6.155 60.4829 6.74399C59.8365 6.83005 59.3812 7.42331 59.4666 8.06967C59.5527 8.71604 60.1484 9.16953 60.7923 9.0853C64.64 8.57627 68.4803 9.57419 71.6084 11.8941C78.1861 16.7666 79.6034 26.0433 74.767 32.5747C72.5148 35.6197 69.2439 37.6321 65.5177 38.2851L48.1452 25.4104C47.6862 21.6555 48.661 17.9385 50.915 14.8946C52.2224 13.1234 53.8758 11.7 55.8283 10.6637C56.4045 10.3579 56.6236 9.64255 56.3178 9.06699C56.0114 8.49082 55.2973 8.2717 54.7206 8.57749C52.4537 9.7811 50.5335 11.4345 49.0156 13.4902C46.3709 17.062 45.2424 21.4315 45.818 25.8376L30.6507 53.265C29.4032 55.5239 29.4209 57.7529 30.1667 59.6554L28.1306 62.4075C26.7738 64.2422 26.8977 66.7233 28.2856 68.4097L24.3177 73.7679C23.7128 74.5858 22.8211 75.1199 21.8073 75.2706C20.7948 75.4214 19.7889 75.1718 18.9741 74.5669L11.8574 69.2947C10.5353 68.3138 8.90571 67.9073 7.26691 68.1515C5.62995 68.3956 4.1883 69.2581 3.20746 70.5819L0.231387 74.6047C-0.156186 75.129 -0.0457125 75.8688 0.47919 76.2563C1.00348 76.6445 1.74262 76.5334 2.1308 76.0092L5.10566 71.9869C5.71052 71.1709 6.60224 70.6381 7.61542 70.4873C8.62861 70.3359 9.63508 70.5862 10.4517 71.1917L17.5672 76.4633C18.6384 77.2579 19.911 77.6754 21.2263 77.6754C21.5345 77.6754 21.8446 77.6522 22.1552 77.6058C23.794 77.3623 25.2369 76.4974 26.2171 75.1724L30.1838 69.8147C30.7819 70.0625 31.4143 70.1833 32.0435 70.1833C33.5383 70.1833 35.0153 69.501 35.9724 68.2113L38.1642 65.2529C38.205 65.2535 38.2453 65.2554 38.2862 65.256H38.3119C40.3517 65.256 42.2193 64.4656 43.7153 62.9684L66.0603 40.5904C70.3303 39.808 74.0773 37.4795 76.6658 33.9791C82.2761 26.4028 80.6385 15.6441 73.0146 9.99716ZM34.0754 66.805C33.2478 67.9202 31.6682 68.1558 30.5537 67.3306C29.4398 66.506 29.2048 64.927 30.03 63.8113L31.4655 61.871C31.9477 62.4685 32.5019 63.0019 33.1013 63.4518C33.8654 64.0267 34.7041 64.4735 35.5763 64.7787L34.0754 66.805ZM42.0442 61.2997C39.7102 63.6355 36.5833 63.1155 34.5203 61.5646C32.4964 60.043 31.1536 57.239 32.718 54.407L37.8748 45.0814L49.5802 53.7527L42.0442 61.2997ZM60.4249 42.8915L54.6852 38.6373C54.1609 38.2485 53.4211 38.359 53.0329 38.8833C52.6447 39.407 52.7546 40.1467 53.2783 40.5343L58.7379 44.5809L51.2666 52.0632L39.0278 42.9964L44.1364 33.7576L48.722 37.1542C48.9332 37.311 49.1792 37.3861 49.4239 37.3861C49.7852 37.3861 50.1417 37.2207 50.3736 36.9082C50.7618 36.3845 50.6519 35.6448 50.1277 35.2566L45.29 31.6726L47.4232 27.8152L63.5469 39.764L60.4249 42.8915Z" fill="black"/>
<path d="M4.61972 44.8613C5.32101 45.2665 6.18527 45.4686 7.12949 45.4686C8.06576 45.4686 9.08017 45.2696 10.0903 44.871C13.4094 43.5618 15.7159 40.568 15.3424 38.0564C15.1855 36.9999 14.5788 36.118 13.6346 35.5729C13.5956 35.5503 13.554 35.5302 13.5138 35.5088L11.6815 23.195C11.7193 23.1633 11.7901 23.1169 11.8994 23.0766L24.5434 18.4117L25.802 26.8711C24.9902 26.9218 24.1284 27.1183 23.2538 27.4632C19.9341 28.7706 17.6269 31.7643 18.0011 34.2784C18.1585 35.3343 18.7652 36.2156 19.7101 36.7607C20.4205 37.1702 21.2756 37.3753 22.2113 37.3753C23.1421 37.3753 24.1522 37.1727 25.1782 36.7668C28.4949 35.4588 30.7995 32.465 30.4254 29.9516C30.2685 28.8969 29.6625 28.0162 28.7195 27.4723C28.5681 27.3844 28.4088 27.3088 28.2446 27.2398L26.8738 18.0265C26.77 17.3167 26.3257 16.6496 25.7141 16.2852C25.1745 15.9635 24.5392 15.8976 23.9685 16.1064L11.0779 20.8622C9.85349 21.3182 9.16867 22.3417 9.33469 23.4715L11.0437 34.9589C10.1373 34.9705 9.15952 35.1707 8.16525 35.5626C8.16464 35.5632 8.16403 35.5632 8.16342 35.5632C4.84555 36.8779 2.53964 39.8729 2.91317 42.3826C3.07065 43.4367 3.67672 44.3168 4.61972 44.8613ZM24.3103 34.5707C22.7051 35.2055 21.4905 35.0621 20.8899 34.7154C20.5646 34.528 20.3894 34.2784 20.3375 33.9311C20.1526 32.6884 21.6601 30.6291 24.1192 29.6605C24.1192 29.6605 24.1192 29.6605 24.1199 29.6598C24.9219 29.3437 25.6262 29.2216 26.2048 29.2216C26.7846 29.2216 27.2381 29.3443 27.5384 29.5176C27.8625 29.7044 28.0377 29.9528 28.0896 30.2995C28.2745 31.5416 26.7682 33.6015 24.3103 34.5707ZM9.03256 37.7592C10.639 37.1263 11.853 37.2709 12.4536 37.6176C12.7789 37.8056 12.9541 38.0552 13.006 38.4037C13.1909 39.6452 11.6833 41.7045 9.2236 42.6744C7.61655 43.3079 6.40134 43.1633 5.80075 42.8166C5.47604 42.6292 5.30087 42.3808 5.2496 42.0347C5.06527 40.7945 6.57345 38.7339 9.03256 37.7592Z" fill="black"/>
<path d="M74.4208 66.4465C74.3146 66.3623 74.2017 66.2854 74.0857 66.2115V58.031C74.0857 57.3431 73.7702 56.676 73.2422 56.2463C72.7814 55.871 72.1954 55.722 71.6315 55.8386L59.7125 58.324C58.5107 58.5718 57.7344 59.433 57.7344 60.517V70.658C56.9617 70.5731 56.1151 70.6281 55.2344 70.8331C52.0966 71.5595 49.6387 73.941 49.6387 76.2549C49.6387 77.2418 50.0726 78.1299 50.8606 78.7561C51.6583 79.3903 52.746 79.7186 53.9783 79.7186C54.549 79.7186 55.1508 79.6478 55.7684 79.505C58.9056 78.7744 61.3623 76.3928 61.3623 74.0839C61.3623 73.0957 60.9271 72.2058 60.1367 71.579C60.1233 71.568 60.1093 71.5588 60.0958 71.5485V60.6628C60.1215 60.6531 60.1532 60.6439 60.1923 60.636L71.7236 58.2318V65.5017C71.0309 65.459 70.2857 65.5231 69.5142 65.7031C66.3776 66.4288 63.9203 68.8098 63.9203 71.1243C63.9203 72.1118 64.3549 73.0005 65.1441 73.6267C65.9412 74.2584 67.0258 74.5856 68.2532 74.5856C68.8257 74.5856 69.4287 74.5148 70.0482 74.3701C73.186 73.6444 75.6439 71.2634 75.6439 68.949C75.6445 67.9614 75.21 67.0728 74.4208 66.4465ZM55.2344 77.2052C53.7878 77.5391 52.7661 77.254 52.3303 76.908C52.1057 76.7291 52.0007 76.5216 52.0007 76.2549C52.0007 75.1929 53.6115 73.6328 55.7672 73.1342C55.7678 73.1335 55.7684 73.1335 55.769 73.1335C56.2244 73.0273 56.6376 72.9828 57.0032 72.9828C57.7979 72.9828 58.3704 73.1915 58.6688 73.4283C58.8953 73.6078 59.0009 73.8165 59.0009 74.0839C59.0009 75.1428 57.3889 76.7029 55.2344 77.2052ZM69.5142 72.0697C68.0695 72.4066 67.0483 72.1222 66.6126 71.7767C66.3873 71.5985 66.2824 71.391 66.2824 71.1243C66.2824 70.0623 67.8931 68.5016 70.0488 68.0035C70.0494 68.0029 70.0501 68.0029 70.0507 68.0029C70.5072 67.8967 70.9216 67.8522 71.2891 67.8522C72.0825 67.8522 72.6544 68.0597 72.9523 68.2959C73.1775 68.4747 73.2825 68.6823 73.2825 68.9484C73.2825 70.011 71.6718 71.571 69.5142 72.0697Z" fill="black"/>
</g>
<defs>
<clipPath id="clip0">
<rect width="80" height="80" fill="white" transform="translate(0 3)"/>
</clipPath>
</defs>
</svg>
