<svg width="126" height="100" viewBox="0 0 126 100" fill="none" xmlns="http://www.w3.org/2000/svg">
<path opacity="0.3" fill-rule="evenodd" clip-rule="evenodd" d="M63.0378 0.973C100.11 7.20062 125.963 28.3603 125.963 62.1442C125.963 102.638 93.8458 60.5638 71.6993 84.1729C49.5528 107.782 2.36927 108.451 0.112238 62.1442C-2.00062 18.7949 25.9653 -5.25463 63.0378 0.973Z" fill="#F9FC64"/>
<path fill-rule="evenodd" clip-rule="evenodd" d="M58.644 29.1586L86.6464 29.1543C92.4453 29.1543 96.8191 33.8967 96.8191 39.6963V72.8402C96.8191 78.6398 92.4453 83.3822 86.6464 83.3822H29.7225C23.9236 83.3822 19.1812 78.6398 19.1812 72.8402V39.6963C19.1812 33.8967 23.9236 29.1543 29.7225 29.1543L58.644 29.1586Z" fill="#B5722F"/>
<path fill-rule="evenodd" clip-rule="evenodd" d="M86.6465 83.3822C92.4454 83.3822 96.8192 78.6398 96.8192 72.8402V39.6963C96.8192 33.8967 92.4454 29.1543 86.6465 29.1543H79.4346C79.799 29.1543 80.1584 29.172 80.5137 29.2117C80.709 29.2294 80.9 29.2562 81.0911 29.2874C82.2141 29.4692 83.2712 29.8379 84.2258 30.3573C87.4808 32.1249 89.6079 35.6552 89.6079 39.6957V72.8402C89.6079 76.8899 87.4717 80.4244 84.2081 82.192C83.0887 82.7957 81.8369 83.1912 80.496 83.3285C80.1896 83.3596 79.8783 83.3773 79.5676 83.3816H86.6465V83.3822Z" fill="#8A541E"/>
<path fill-rule="evenodd" clip-rule="evenodd" d="M81.1792 29.1534L79.4208 31.8353L76.5881 29.1534V23.3099C76.5881 21.7157 75.2826 20.4102 73.6884 20.4102H72.2894L69.2432 17.8699L72.2894 15.8496H73.8837C77.9022 15.8496 81.1792 19.1223 81.1792 23.1451V29.1534Z" fill="#E6E6E6"/>
<path fill-rule="evenodd" clip-rule="evenodd" d="M35.2065 29.1534L37.5515 30.4944L39.7982 29.1534V23.3099C39.7982 21.7157 41.1038 20.4102 42.698 20.4102H44.0969L47.1432 17.8699L44.0969 15.8496H42.5027C38.4792 15.8496 35.2065 19.1223 35.2065 23.1451V29.1534Z" fill="#E6E6E6"/>
<path fill-rule="evenodd" clip-rule="evenodd" d="M46.4545 23.2792H69.754C71.0461 23.2792 72.1075 22.222 72.1075 20.9257V14.8154C72.1075 13.519 71.0461 12.4619 69.754 12.4619H46.4545C45.1581 12.4619 44.0967 13.519 44.0967 14.8154V20.9257C44.0967 22.222 45.1581 23.2792 46.4545 23.2792Z" fill="#FCC368"/>
<path fill-rule="evenodd" clip-rule="evenodd" d="M44.0967 20.9252C44.0967 22.2216 45.1581 23.2781 46.4545 23.2781H69.754C71.0461 23.2781 72.1075 22.2216 72.1075 20.9252V18.0742C72.1075 18.709 71.8542 19.2821 71.4459 19.7081C71.015 20.1525 70.4156 20.4277 69.754 20.4277H46.4545C45.8325 20.4277 45.2643 20.1879 44.8425 19.7881C44.3854 19.3572 44.0967 18.7493 44.0967 18.0742V20.9252Z" fill="#FFA719"/>
<path fill-rule="evenodd" clip-rule="evenodd" d="M32.1611 58.5852V83.3813H39.7985V58.5852L35.9795 56.7383L32.1611 58.5852Z" fill="#64B0D9"/>
<path fill-rule="evenodd" clip-rule="evenodd" d="M76.5708 58.5859H84.2081V83.3821H76.5708V58.5859Z" fill="#64B0D9"/>
<path fill-rule="evenodd" clip-rule="evenodd" d="M49.1236 74.5006L56.3795 71.0949C56.7433 70.9215 56.8989 70.4863 56.7298 70.122L55.2821 67.0446C55.1136 66.6808 54.6742 66.5251 54.3141 66.6942L47.0588 70.1043C46.6944 70.2733 46.5388 70.7085 46.7079 71.0723L48.1556 74.1497C48.3241 74.514 48.7593 74.6691 49.1236 74.5006Z" fill="#64B0D9"/>
<path fill-rule="evenodd" clip-rule="evenodd" d="M52.6002 57.1433L61.7878 60.3489C62.2449 60.5088 62.7558 60.2646 62.9157 59.8075L64.2744 55.9085C64.4343 55.4514 64.1901 54.9405 63.733 54.7806L54.5454 51.5744C54.0882 51.4145 53.5773 51.6587 53.4174 52.1164L52.0588 56.0105C51.894 56.4725 52.143 56.9785 52.6002 57.1433Z" fill="#F78411"/>
<path fill-rule="evenodd" clip-rule="evenodd" d="M57.1519 44.3095L64.9766 42.5823C65.3672 42.4974 65.6205 42.1068 65.5314 41.7162L64.799 38.3946C64.7142 38.004 64.3235 37.755 63.9286 37.8398L56.1039 39.5671C55.7133 39.6514 55.4649 40.042 55.5491 40.4326L56.2822 43.7541C56.3664 44.1448 56.757 44.3938 57.1519 44.3095Z" fill="#64B0D9"/>
<path fill-rule="evenodd" clip-rule="evenodd" d="M32.1611 44.576L35.9795 47.4001L39.7985 44.576V29.1543H32.1611V44.576Z" fill="#64B0D9"/>
<path fill-rule="evenodd" clip-rule="evenodd" d="M76.5708 44.576L80.3757 47.4001L84.2081 44.576L84.2258 29.1543H76.5885L76.5708 44.576Z" fill="#64B0D9"/>
<path fill-rule="evenodd" clip-rule="evenodd" d="M70.6953 54.66C70.6953 56.8176 72.4586 58.5852 74.6211 58.5852H85.9755C88.1337 58.5852 89.8964 56.8176 89.8964 54.66V48.501C89.8964 46.3428 88.1331 44.5752 85.9755 44.5752H74.6211C72.4586 44.5752 70.6953 46.3428 70.6953 48.501V54.66Z" fill="#FCC368"/>
<path fill-rule="evenodd" clip-rule="evenodd" d="M26.0947 54.66C26.0947 56.8176 27.858 58.5852 30.0156 58.5852H41.3749C43.5331 58.5852 45.2958 56.8176 45.2958 54.66V48.501C45.2958 46.3428 43.5325 44.5752 41.3749 44.5752H30.0162C27.858 44.5752 26.0953 46.3428 26.0953 48.501V54.66H26.0947Z" fill="#FCC368"/>
<path fill-rule="evenodd" clip-rule="evenodd" d="M80.5137 29.1543H84.2264V44.576H80.5137V29.1543Z" fill="#4A83C9"/>
<path fill-rule="evenodd" clip-rule="evenodd" d="M80.4961 58.5859H84.2083V83.3821H80.4961V58.5859Z" fill="#4A83C9"/>
<path fill-rule="evenodd" clip-rule="evenodd" d="M36.082 58.5859H39.7985V83.3821H36.082V58.5859Z" fill="#4A83C9"/>
<path fill-rule="evenodd" clip-rule="evenodd" d="M36.082 29.1543H39.7985V44.576H36.082V29.1543Z" fill="#4A83C9"/>
<path fill-rule="evenodd" clip-rule="evenodd" d="M82.1523 58.5852H85.9756C88.1338 58.5852 89.8965 56.8176 89.8965 54.66V48.501C89.8965 46.3428 88.1332 44.5752 85.9756 44.5752H82.17C83.0892 44.5795 83.9327 44.9036 84.6035 45.4413C85.5007 46.1603 86.0732 47.2662 86.0732 48.501V54.6594C86.0732 56.8176 84.3105 58.5852 82.1523 58.5852Z" fill="#FFA719"/>
<path fill-rule="evenodd" clip-rule="evenodd" d="M37.5518 58.5852H41.375C43.5332 58.5852 45.2959 56.8176 45.2959 54.66V48.501C45.2959 46.3428 43.5332 44.5752 41.375 44.5752H37.5695C38.4886 44.5795 39.3322 44.9036 40.0029 45.4413C40.9001 46.1603 41.4727 47.2662 41.4727 48.501V54.6594C41.4727 56.8176 39.71 58.5852 37.5518 58.5852Z" fill="#FFA719"/>
<path fill-rule="evenodd" clip-rule="evenodd" d="M76.0869 53.1331C76.0869 53.4657 76.3622 53.7367 76.6948 53.7367H83.9019C84.2351 53.7367 84.5061 53.4657 84.5061 53.1331V50.0288C84.5061 49.6962 84.2351 49.4209 83.9019 49.4209H76.6948C76.3622 49.4209 76.0869 49.6962 76.0869 50.0288V53.1331Z" fill="#F78411"/>
<path fill-rule="evenodd" clip-rule="evenodd" d="M32.0895 53.7367H39.3008C39.6298 53.7367 39.905 53.4657 39.905 53.1331V50.0288C39.905 49.6962 39.6298 49.4209 39.3008 49.4209H32.0895C31.7611 49.4209 31.4858 49.6962 31.4858 50.0288V53.1331C31.4858 53.4663 31.7611 53.7367 32.0895 53.7367Z" fill="#F78411"/>
<path d="M86.6462 27.9731H82.3604V23.1459C82.3604 18.4718 78.5579 14.6693 73.8838 14.6693H73.2844C73.2075 12.7882 71.6542 11.2812 69.7542 11.2812H46.4546C44.5521 11.2812 42.9963 12.7882 42.9194 14.6693H42.5026C37.8285 14.6693 34.026 18.4718 34.026 23.1459V27.9744L32.1687 27.9738C32.1656 27.9738 32.1632 27.9731 32.1608 27.9731C32.1577 27.9731 32.1553 27.9738 32.1522 27.9738L29.7224 27.9731C23.2588 27.9731 18 33.2319 18 39.6962V72.8401C18 79.3037 23.2588 84.5625 29.7224 84.5625H86.6462C93.0128 84.5625 98 79.4136 98 72.8401V39.6962C98 33.1227 93.0128 27.9731 86.6462 27.9731ZM74.6211 57.4049C73.1074 57.4049 71.8763 56.1738 71.8763 54.6608V48.5017C71.8763 46.988 73.1074 45.757 74.6211 45.757H85.9755C87.4867 45.757 88.7153 46.988 88.7153 48.5017V54.6608C88.7153 56.1738 87.4867 57.4049 85.9755 57.4049H74.6211ZM39.7981 72.7296C39.1462 72.7296 38.6177 73.2582 38.6177 73.91V82.201H33.3412V59.767H38.6177V68.4749C38.6177 69.1273 39.1462 69.6559 39.7981 69.6559C40.4506 69.6559 40.9791 69.1273 40.9791 68.4749V59.767H41.3746C44.1877 59.767 46.4766 57.4763 46.4766 54.6608V48.5017C46.4766 45.6855 44.1877 43.3955 41.3746 43.3955H40.9791V30.337L55.926 30.3395C56.5785 30.3395 57.1071 29.8109 57.1071 29.1584C57.1071 28.5066 56.5785 27.978 55.9266 27.9774L40.9791 27.975V23.3107C40.9791 22.3628 41.75 21.5913 42.6979 21.5913H42.9792C43.2924 23.2234 44.731 24.46 46.4546 24.46H69.7542C71.4753 24.46 72.9121 23.2234 73.2246 21.5913H73.6885C74.6364 21.5913 75.4072 22.3628 75.4072 23.3107V27.9731H61.3612C60.7094 27.9731 60.1808 28.5023 60.1808 29.1542C60.1808 29.8066 60.7094 30.3352 61.3612 30.3352H75.406L75.3907 43.3955H74.6211C71.8055 43.3955 69.5149 45.6862 69.5149 48.5017V54.6608C69.5149 57.4763 71.8055 59.767 74.6211 59.767H75.3895V82.201H40.9791V73.91C40.9791 73.2582 40.4506 72.7296 39.7981 72.7296ZM38.6171 30.3364V43.3955H33.3412V30.3358L38.6171 30.3364ZM41.3746 45.757C42.8859 45.757 44.1151 46.988 44.1151 48.5017V54.6608C44.1151 56.1738 42.8859 57.4049 41.3746 57.4049H30.016C28.5048 57.4049 27.2755 56.1738 27.2755 54.6608V48.5017C27.2755 46.988 28.5048 45.757 30.016 45.757H41.3746ZM77.7522 43.3955L77.7675 30.3352H83.0433L83.0287 43.3955H77.7522ZM79.9989 23.1459V27.9731H77.7687V23.3107C77.7687 21.0603 75.9382 19.2299 73.6885 19.2299H73.2887V17.0314H73.8838C77.2554 17.0314 79.9989 19.7743 79.9989 23.1459ZM45.2772 14.8158C45.2772 14.1688 45.8058 13.6433 46.4546 13.6433H69.7542C70.4005 13.6433 70.9266 14.1694 70.9266 14.8158V20.926C70.9266 21.5724 70.4005 22.0985 69.7542 22.0985H46.4546C45.8052 22.0985 45.2772 21.5724 45.2772 20.926V14.8158ZM36.3875 23.1459C36.3875 19.7743 39.131 17.0314 42.5026 17.0314H42.9158V19.2299H42.6979C40.4475 19.2299 38.6171 21.0603 38.6171 23.3107V27.975L36.3875 27.9744V23.1459ZM20.3615 72.8401V39.6962C20.3615 34.5344 24.5613 30.3352 29.7224 30.3352H30.9797V43.3955H30.016C27.2029 43.3955 24.9141 45.6862 24.9141 48.5017V54.6608C24.9141 57.4763 27.2023 59.767 30.016 59.767H30.9797V82.201H29.7224C24.5607 82.201 20.3615 78.0018 20.3615 72.8401ZM95.6385 72.8401C95.6385 78.0891 91.6884 82.201 86.6456 82.201H85.3889V73.91C85.3889 73.2582 84.8604 72.7296 84.2079 72.7296C83.556 72.7296 83.0275 73.2582 83.0275 73.91V82.201H77.751V59.767H83.0275V68.4749C83.0275 69.1273 83.556 69.6559 84.2079 69.6559C84.8604 69.6559 85.3889 69.1273 85.3889 68.4749V59.767H85.9755C88.7886 59.767 91.0774 57.4763 91.0774 54.6608V48.5017C91.0774 45.6855 88.7886 43.3955 85.9755 43.3955H85.3901L85.4054 30.3352H86.6456C91.6884 30.3352 95.6385 34.4465 95.6385 39.6962V72.8401Z" fill="black"/>
<path d="M52.2114 58.2577L61.3984 61.4639C61.6199 61.5414 61.8494 61.5799 62.0783 61.5799C62.3841 61.5799 62.6893 61.5109 62.9743 61.3742C63.4736 61.1343 63.8489 60.7162 64.0308 60.1956L65.3895 56.2979C65.5701 55.7797 65.5384 55.22 65.2997 54.722C65.0599 54.2227 64.6418 53.8473 64.1218 53.6661L54.9348 50.4599C54.4166 50.2786 53.8569 50.3103 53.3588 50.5496C52.8596 50.7889 52.4842 51.2069 52.3023 51.7276L50.9461 55.6149C50.5653 56.6849 51.1286 57.8689 52.2114 58.2577ZM54.4343 52.7865L63.0628 55.7974L61.8989 59.1372L53.2691 56.1258L54.4343 52.7865Z" fill="black"/>
<path d="M55.1272 44.0047C55.3195 44.8952 56.1136 45.5068 56.9998 45.5068C57.1341 45.5068 57.2702 45.4927 57.4063 45.4634L65.2255 43.7374C65.7266 43.6293 66.1544 43.3309 66.4309 42.8969C66.7062 42.4648 66.7959 41.9533 66.6842 41.4626L65.953 38.1465C65.7315 37.1211 64.7122 36.4656 63.674 36.6878L55.8517 38.4145C55.3543 38.5225 54.9289 38.8191 54.6536 39.2494C54.3795 39.6779 54.2874 40.1869 54.396 40.688L55.1272 44.0047ZM63.743 39.0908L64.2801 41.5273L57.3373 43.0605L56.8002 40.6233L63.743 39.0908Z" fill="black"/>
<path d="M47.0839 74.6467C47.2994 75.1105 47.6833 75.4621 48.1655 75.636C48.3767 75.7123 48.5958 75.7502 48.8149 75.7502C49.0902 75.7502 49.3654 75.6898 49.6248 75.5695L56.8862 72.1613C57.8304 71.7121 58.2412 70.575 57.7987 69.6198L56.354 66.5485C56.1397 66.0871 55.757 65.7361 55.2767 65.561C54.7945 65.3858 54.2745 65.4084 53.8119 65.6257L46.5584 69.0351C46.0964 69.2505 45.7461 69.6338 45.5727 70.1148C45.4006 70.5921 45.4232 71.1085 45.6392 71.5754L47.0839 74.6467ZM54.4057 67.956L55.4696 70.2173L49.0322 73.2392L47.9696 70.9815L54.4057 67.956Z" fill="black"/>
<path d="M32.0894 54.9181H39.3007C40.2852 54.9181 41.0853 54.1173 41.0853 53.1334V50.0292C41.0853 49.0428 40.2852 48.2402 39.3007 48.2402H32.0894C31.1055 48.2402 30.3047 49.0428 30.3047 50.0292V53.1334C30.3047 54.1173 31.1055 54.9181 32.0894 54.9181ZM32.6661 50.6017H38.7239V52.5566H32.6661V50.6017Z" fill="black"/>
<path d="M83.9012 48.2402H76.6942C75.7079 48.2402 74.9053 49.0428 74.9053 50.0292V53.1334C74.9053 54.1173 75.7079 54.9181 76.6942 54.9181H83.9012C84.8851 54.9181 85.6859 54.1173 85.6859 53.1334V50.0292C85.6859 49.0428 84.8857 48.2402 83.9012 48.2402ZM83.3245 52.5566H77.2667V50.6017H83.3245V52.5566Z" fill="black"/>
</svg>
