<svg width="147" height="40" viewBox="0 0 147 40" fill="none" xmlns="http://www.w3.org/2000/svg">
<path d="M22.9252 26.7944L18.9035 30.9999L18.5111 31.4101C16.3852 33.6324 13.9689 34.7365 11.2715 34.7233C8.57013 34.7102 6.13373 33.6153 3.95445 31.44C2.46296 29.9513 0.28637 27.7787 0.28637 27.7787L2.57599 25.3865C3.38678 24.5375 4.71884 24.5221 5.55033 25.3522L7.57931 27.3774C8.59443 28.3906 9.76504 28.8607 11.0912 28.785C12.4198 28.7079 13.65 28.0743 14.7844 26.8885L18.8074 22.6828L22.9252 26.7944Z" fill="#0057AD"/>
<path d="M43.0351 5.77238L25.376 24.233L21.2569 20.1215L12.6994 11.581L14.8994 9.27995C15.7115 8.43089 17.0435 8.4155 17.8751 9.24557L24.9264 16.2854L37.4464 3.19716C38.2572 2.34817 39.5892 2.33278 40.4207 3.1628L43.0351 5.77238Z" fill="#0057AD"/>
<path d="M64.9483 4.14119C65.9896 4.14119 66.8449 4.22796 67.5143 4.40151C68.2085 4.57506 68.7911 4.76101 69.2622 4.95935L68.2953 9.31049C67.8986 9.13693 67.4523 9.01297 66.9565 8.93859C66.4854 8.86421 66.002 8.82703 65.5061 8.82703C64.8367 8.82703 64.2665 8.9262 63.7954 9.12454C63.3491 9.29809 62.9896 9.54602 62.7169 9.86832C62.469 10.1906 62.283 10.5749 62.1591 11.0212C62.0599 11.4675 62.0103 11.9509 62.0103 12.4716V13.4385H68.8531V18.0499H62.0103V33H56.4691V12.3972C56.4691 9.86832 57.1757 7.86011 58.5889 6.37254C60.0269 4.88497 62.1467 4.14119 64.9483 4.14119ZM79.8983 33.3719C78.2868 33.3471 76.9728 33.1735 75.9563 32.8512C74.9645 32.5289 74.1712 32.0827 73.5762 31.5124C73.0059 30.9174 72.6092 30.2108 72.3861 29.3926C72.1878 28.5497 72.0886 27.6076 72.0886 26.5663V5.03373L77.6298 4.14119V25.4506C77.6298 25.9464 77.667 26.3927 77.7413 26.7894C77.8157 27.1861 77.9521 27.5208 78.1504 27.7935C78.3736 28.0662 78.6835 28.2894 79.0802 28.4629C79.4768 28.6365 80.0099 28.748 80.6793 28.7976L79.8983 33.3719ZM100.82 13.4385C99.7048 17.207 98.5395 20.74 97.3246 24.0374C96.1098 27.3348 94.7834 30.5331 93.3454 33.6322C92.8248 34.7479 92.3041 35.69 91.7835 36.4586C91.2628 37.252 90.6926 37.8966 90.0728 38.3924C89.4529 38.9131 88.7463 39.285 87.953 39.5081C87.1844 39.756 86.2795 39.88 85.2382 39.88C84.3704 39.88 83.5646 39.7932 82.8209 39.6197C82.1019 39.4709 81.5068 39.2974 81.0358 39.099L82.0027 34.6735C82.5729 34.8719 83.0812 35.0082 83.5275 35.0826C83.9737 35.157 84.4448 35.1942 84.9406 35.1942C85.9324 35.1942 86.6885 34.9214 87.2092 34.376C87.7546 33.8554 88.2133 33.124 88.5852 32.1818C87.3208 29.7026 86.0563 26.9258 84.7919 23.8515C83.5275 20.7524 82.3374 17.2814 81.2217 13.4385H87.0976C87.3455 14.4054 87.6307 15.4591 87.953 16.5996C88.3001 17.7152 88.6596 18.8557 89.0315 20.021C89.4033 21.1614 89.7752 22.2771 90.1471 23.368C90.5438 24.4589 90.9157 25.4506 91.2628 26.3431C91.5851 25.4506 91.9198 24.4589 92.2669 23.368C92.614 22.2771 92.9487 21.1614 93.271 20.021C93.6181 18.8557 93.9404 17.7152 94.2379 16.5996C94.5602 15.4591 94.8454 14.4054 95.0933 13.4385H100.82ZM118.953 17.1574C118.507 17.6533 117.899 18.3227 117.131 19.1656C116.387 20.0086 115.581 20.9383 114.713 21.9548C113.845 22.9713 112.965 24.0374 112.073 25.1531C111.205 26.2688 110.412 27.3472 109.693 28.3885H119.139V33H102.961V29.7274C103.482 28.8348 104.102 27.8803 104.821 26.8638C105.565 25.8225 106.333 24.7812 107.127 23.7399C107.945 22.6986 108.751 21.6945 109.544 20.7276C110.337 19.7359 111.069 18.8433 111.738 18.0499H103.408V13.4385H118.953V17.1574ZM140.915 13.4385C139.799 17.207 138.634 20.74 137.419 24.0374C136.204 27.3348 134.878 30.5331 133.44 33.6322C132.919 34.7479 132.399 35.69 131.878 36.4586C131.357 37.252 130.787 37.8966 130.167 38.3924C129.548 38.9131 128.841 39.285 128.048 39.5081C127.279 39.756 126.374 39.88 125.333 39.88C124.465 39.88 123.659 39.7932 122.915 39.6197C122.196 39.4709 121.601 39.2974 121.13 39.099L122.097 34.6735C122.668 34.8719 123.176 35.0082 123.622 35.0826C124.068 35.157 124.539 35.1942 125.035 35.1942C126.027 35.1942 126.783 34.9214 127.304 34.376C127.849 33.8554 128.308 33.124 128.68 32.1818C127.415 29.7026 126.151 26.9258 124.886 23.8515C123.622 20.7524 122.432 17.2814 121.316 13.4385H127.192C127.44 14.4054 127.725 15.4591 128.048 16.5996C128.395 17.7152 128.754 18.8557 129.126 20.021C129.498 21.1614 129.87 22.2771 130.242 23.368C130.638 24.4589 131.01 25.4506 131.357 26.3431C131.68 25.4506 132.014 24.4589 132.362 23.368C132.709 22.2771 133.043 21.1614 133.366 20.021C133.713 18.8557 134.035 17.7152 134.333 16.5996C134.655 15.4591 134.94 14.4054 135.188 13.4385H140.915Z" fill="#0057AD"/>
</svg>
